<svg xmlns="http://www.w3.org/2000/svg" data-name="Layer 1" viewBox="0 0 100 125" x="0px" y="0px">
    <path d="M40,76.29a4,4,0,0,0,4-4V51a4,4,0,0,0-8,0V72.29A4,4,0,0,0,40,76.29Z" />
    <path d="M60,76.29a4,4,0,0,0,4-4V51a4,4,0,0,0-8,0V72.29A4,4,0,0,0,60,76.29Z" />
    <path
        d="M82.67,16.33H64.31V14.75a8,8,0,0,0-8-8H43.69a8,8,0,0,0-8,8v1.58H17.33a4,4,0,0,0-4,4v16a4,4,0,0,0,4,4h4.4V79.25a14,14,0,0,0,14,14H64.27a14,14,0,0,0,14-14V40.33h4.4a4,4,0,0,0,4-4v-16A4,4,0,0,0,82.67,16.33Zm-39-1.58H56.31v1.58H43.69ZM70.27,79.25a6,6,0,0,1-6,6H35.73a6,6,0,0,1-6-6V40.33H70.27Zm8.4-46.91H21.33v-8H78.67Z" />

</svg>